<svg width="16" height="16" viewBox="0 0 16 15" xmlns="http://www.w3.org/2000/svg">
  <path d="M14.25 15H1.75C.8 15 0 14.2 0 13.25V7h16v6.25c0 .95-.8 1.75-1.75 1.75zM1.5 8.5v4.75c0 .15.1.25.25.25h12.5c.15 0 .25-.1.25-.25V8.5h-13zm1.25-1.75c-.3 0-.55-.15-.7-.45l-.7-1.55c-.25-.6 0-1.35.65-1.65.15-.05.3-.1.45-.1H13.5c.3 0 .65.15.85.35.25.25.35.55.35.9 0 .2-.05.35-.1.5l-.7 1.55c-.15.4-.6.55-1 .35-.4-.15-.55-.6-.35-1l.55-1.2H2.9l.55 1.2c.15.4 0 .8-.4 1-.1.1-.2.1-.3.1zm10.1-4.3L13.2 2c.15-.2.25-.5.25-.75 0-.35-.15-.65-.35-.9-.25-.2-.55-.35-.9-.35H3.8c-.3 0-.55.1-.8.25-.5.45-.6 1.25-.2 1.8l.35.45c.25.3.75.4 1.05.1.3-.25.4-.75.1-1.05V1.5h7.4l-.05.05c-.25.3-.2.8.1 1.05a.806.806 0 001.1-.15zM11 10.75c0-.4-.35-.75-.75-.75h-4.5c-.4 0-.75.35-.75.75s.35.75.75.75h4.5c.4 0 .75-.35.75-.75z" fill="currentColor" fill-rule="nonzero"/>
</svg>
